<?xml version="1.0" standalone="no"?>
<!DOCTYPE svg PUBLIC "-//W3C//DTD SVG 1.1//EN" "http://www.w3.org/Graphics/SVG/1.1/DTD/svg11.dtd" >
<svg xmlns="http://www.w3.org/2000/svg">
<metadata>Generated by IcoMoon</metadata>
<defs>
<font id="icomoon" horiz-adv-x="1024">
<font-face units-per-em="1024" ascent="960" descent="-64" />
<missing-glyph horiz-adv-x="1024" />
<glyph unicode="&#x20;" horiz-adv-x="512" d="" />
<glyph unicode="&#xe900;" glyph-name="user" d="M748.245 326.016c-37.295 37.409-82.829 66.58-133.652 84.563l-2.497 0.77c54.62 37.837 89.941 100.182 89.941 170.778 0 114.38-92.724 207.104-207.104 207.104s-207.104-92.724-207.104-207.104c0-70.595 35.321-132.941 89.256-170.328l0.686-0.45c-141.419-50.176-240.901-182.756-241.024-338.588v-0.015h55.936c-0.014 1.068-0.021 2.329-0.021 3.591 0 166.928 135.322 302.251 302.251 302.251s302.251-135.322 302.251-302.251c0-1.263-0.008-2.524-0.023-3.783l0.002 0.192h55.979c0.001 0.292 0.001 0.638 0.001 0.984 0 98.592-40.092 187.821-104.862 252.272l-0.014 0.014zM495.147 430.933c-83.441 0-151.083 67.642-151.083 151.083s67.642 151.083 151.083 151.083c83.441 0 151.083-67.642 151.083-151.083v0c0-83.441-67.642-151.083-151.083-151.083v0z" />
<glyph unicode="&#xe901;" glyph-name="close" d="M578.987 439.979l257.408 257.451c6.798 6.821 11.001 16.232 11.001 26.624s-4.203 19.803-11.002 26.625l-22.527 22.527c-6.826 6.788-16.235 10.984-26.624 10.984s-19.798-4.196-26.626-10.985l-257.449-257.406-257.451 257.408c-6.821 6.798-16.232 11.001-26.624 11.001s-19.803-4.203-26.625-11.002l0.001 0.001-22.571-22.443c-6.808-6.816-11.019-16.228-11.019-26.624s4.21-19.808 11.019-26.624v0l257.451-257.536-257.451-257.451c-6.788-6.826-10.984-16.235-10.984-26.624s4.196-19.798 10.985-26.626l22.569-22.569c6.821-6.798 16.232-11.001 26.624-11.001s19.803 4.203 26.625 11.002l257.45 257.45 257.323-257.408c6.77-6.8 16.138-11.008 26.49-11.008 0.047 0 0.094 0 0.142 0h-0.007c0.040 0 0.087 0 0.134 0 10.351 0 19.72 4.208 26.488 11.007l22.572 22.572c6.788 6.826 10.984 16.235 10.984 26.624s-4.196 19.798-10.985 26.626l0.002-0.002z" />
<glyph unicode="&#xe903;" glyph-name="facebook-ncolor" d="M540.331 110.165v300.928h90.368l13.568 117.333h-103.936v74.837c0 34.133 8.533 57.088 52.011 57.088h55.467v104.96c-23.64 2.936-51.003 4.611-78.757 4.611-0.737 0-1.474-0.001-2.211-0.004h0.114c-80.128 0-134.997-54.656-134.997-155.008v-86.528h-90.624v-117.291h90.624v-300.928z" />
<glyph unicode="&#xe904;" glyph-name="instagram" d="M508.032 153.6h-6.101c-48.213 0-92.757 1.109-136.107 3.755-40.026 2.011-76.28 16.675-105.221 40.036l0.346-0.271c-27.694 23.092-47.747 54.504-56.343 90.371l-0.233 1.149c-5.964 26.084-9.382 56.037-9.382 86.789 0 3.524 0.045 7.038 0.134 10.54l-0.010-0.518c-0.341 22.485-0.725 49.152-0.725 76.245s0.384 53.888 0.683 76.373c-0.076 2.931-0.119 6.381-0.119 9.842 0 30.816 3.432 60.831 9.935 89.683l-0.514-2.714c8.838 37 28.889 68.396 56.306 91.258l0.27 0.219c28.591 23.106 64.844 37.784 104.44 39.79l0.435 0.018c43.349 2.603 87.893 3.797 136.235 3.797s92.757-1.195 136.064-3.797c40.026-2.011 76.28-16.675 105.221-40.036l-0.346 0.271c27.689-23.080 47.741-54.477 56.343-90.328l0.233-1.149c5.941-26.034 9.345-55.931 9.345-86.622 0-3.598-0.047-7.184-0.14-10.76l0.011 0.528c0.299-22.485 0.64-49.152 0.683-76.288v0c0-27.093-0.384-53.76-0.683-76.288 0.076-2.937 0.12-6.395 0.12-9.863 0-30.809-3.432-60.817-9.935-89.662l0.514 2.714c-8.835-37.001-28.887-68.398-56.305-91.258l-0.271-0.219c-28.595-23.090-64.848-37.754-104.442-39.748l-0.432-0.017c-41.515-2.517-84.139-3.755-130.091-3.755zM501.888 201.771c47.445 0 91.008 1.067 133.291 3.669 29.537 1.234 56.349 11.971 77.691 29.21l-0.251-0.196c19.853 16.738 34.187 39.454 40.243 65.354l0.162 0.822c5.038 22.877 7.923 49.153 7.923 76.104 0 3.246-0.042 6.481-0.125 9.707l0.010-0.477c0.299 22.357 0.64 48.811 0.683 75.691s-0.384 53.333-0.683 75.648c0.076 2.803 0.12 6.103 0.12 9.412 0 26.962-2.887 53.249-8.37 78.569l0.442-2.435c-6.233 26.669-20.548 49.336-40.181 65.899l-0.182 0.149c-21.091 17.043-47.903 27.78-77.173 29.004l-0.267 0.009c-42.283 2.773-85.845 3.968-133.205 3.84s-91.008-1.067-133.291-3.669c-29.537-1.234-56.349-11.971-77.691-29.21l0.251 0.196c-19.822-16.723-34.139-39.406-40.2-65.268l-0.163-0.823c-5.016-22.83-7.89-49.054-7.89-75.95 0-3.375 0.045-6.739 0.135-10.092l-0.011 0.495c-0.299-22.357-0.64-48.853-0.683-75.733s0.384-53.248 0.683-75.733c-0.073-2.747-0.115-5.982-0.115-9.226 0-26.952 2.886-53.23 8.365-78.541l-0.442 2.434c6.224-26.685 20.541-49.368 40.181-65.941l0.182-0.149c21.091-17.043 47.903-27.78 77.173-29.004l0.267-0.009c42.283-2.688 85.888-3.883 133.163-3.755zM500.779 311.296c-0.101 0-0.221 0-0.341 0-83.111 0-150.485 67.375-150.485 150.485s67.375 150.485 150.485 150.485c83.111 0 150.485-67.375 150.485-150.485 0-0.015 0-0.030 0-0.045v0.002c-0.024-82.973-67.195-150.248-150.125-150.443h-0.019zM500.779 564.096c-0.076 0-0.166 0-0.256 0-56.554 0-102.4-45.846-102.4-102.4s45.846-102.4 102.4-102.4c56.554 0 102.4 45.846 102.4 102.4v0c-0.024 56.446-45.715 102.212-102.13 102.357h-0.014zM667.989 660.352c-0.013 0-0.028 0-0.043 0-19.935 0-36.096-16.161-36.096-36.096s16.161-36.096 36.096-36.096c19.935 0 36.096 16.161 36.096 36.096v0c0 19.92-16.136 36.072-36.051 36.096h-0.002z" />
<glyph unicode="&#xe905;" glyph-name="arrow-right" d="M322.091 226.048c-14.497-14.364-23.473-34.279-23.473-56.291 0-23.353 10.103-44.346 26.177-58.847l0.070-0.062c14.195-12.679 33.029-20.428 53.673-20.428 22.809 0 43.409 9.46 58.090 24.671l0.023 0.024 260.267 260.267c14.292 14.413 23.123 34.261 23.123 56.171s-8.831 41.757-23.128 56.176l0.005-0.005-259.712 260.907c-14.772 15.112-35.363 24.483-58.143 24.483-20.599 0-39.408-7.663-53.733-20.293l0.089 0.077c-16.022-14.63-26.035-35.609-26.035-58.925 0-21.968 8.888-41.86 23.263-56.277l-0.002 0.002 166.4-167.381c9.957-9.927 16.117-23.658 16.117-38.827s-6.16-28.899-16.115-38.825l-0.001-0.001z" />
<glyph unicode="&#xe906;" glyph-name="arrow-down" d="M316.459 626.347c-14.364 14.497-34.279 23.473-56.291 23.473-23.353 0-44.346-10.103-58.847-26.177l-0.062-0.070c-12.679-14.195-20.428-33.029-20.428-53.673 0-22.809 9.46-43.409 24.671-58.090l0.024-0.023 260.267-260.267c14.413-14.292 34.261-23.123 56.171-23.123s41.757 8.831 56.176 23.128l-0.005-0.005 260.907 259.712c15.112 14.772 24.483 35.363 24.483 58.143 0 20.599-7.663 39.408-20.293 53.733l0.077-0.089c-14.63 16.022-35.609 26.035-58.925 26.035-21.968 0-41.86-8.888-56.277-23.263l0.002 0.002-167.381-166.4c-9.927-9.957-23.658-16.117-38.827-16.117s-28.899 6.16-38.825 16.115l-0.001 0.001z" />
<glyph unicode="&#xe907;" glyph-name="arrow-left" d="M716.715 674.603c14.497 14.364 23.473 34.279 23.473 56.291 0 23.353-10.103 44.346-26.177 58.847l-0.070 0.062c-14.195 12.679-33.029 20.428-53.673 20.428-22.809 0-43.409-9.46-58.090-24.671l-0.023-0.024-260.267-260.267c-14.292-14.413-23.123-34.261-23.123-56.171s8.831-41.757 23.128-56.176l-0.005 0.005 259.712-260.907c14.772-15.112 35.363-24.483 58.143-24.483 20.599 0 39.408 7.663 53.733 20.293l-0.089-0.077c16.022 14.63 26.035 35.609 26.035 58.925 0 21.968-8.888 41.86-23.263 56.277l0.002-0.002-166.4 167.381c-9.957 9.927-16.117 23.658-16.117 38.827s6.16 28.899 16.115 38.825l0.001 0.001z" />
<glyph unicode="&#xe908;" glyph-name="arrow-top" d="M717.867 263.211c14.364-14.497 34.279-23.473 56.291-23.473 23.353 0 44.346 10.103 58.847 26.177l0.062 0.070c12.679 14.195 20.428 33.029 20.428 53.673 0 22.809-9.46 43.409-24.671 58.090l-0.024 0.023-260.267 260.267c-14.413 14.292-34.261 23.123-56.171 23.123s-41.757-8.831-56.176-23.128l0.005 0.005-260.907-259.712c-15.112-14.772-24.483-35.363-24.483-58.143 0-20.599 7.663-39.408 20.293-53.733l-0.077 0.089c14.63-16.022 35.609-26.035 58.925-26.035 21.968 0 41.86 8.888 56.277 23.263l-0.002-0.002 167.381 166.4c9.927 9.957 23.658 16.117 38.827 16.117s28.899-6.16 38.825-16.115l0.001-0.001z" />
<glyph unicode="&#xe90a;" d="M813.141 504.405h-264.277c-11.782 0-21.333-9.551-21.333-21.333v0-84.437c0-11.782 9.551-21.333 21.333-21.333v0h148.821c-16.765-42.732-46.551-77.327-84.41-99.719l-0.923-0.505 63.445-109.867c97.471 55.492 162.134 158.684 162.134 276.979 0 0.289 0 0.579-0.001 0.868v-0.045c0.007 0.645 0.011 1.406 0.011 2.169 0 13.898-1.324 27.486-3.852 40.646l0.215-1.343c-1.703 10.223-10.482 17.92-21.059 17.92-0.037 0-0.073 0-0.11 0h0.006z" />
<glyph unicode="&#xe90b;" d="M513.664 250.837c-72.582 0.054-135.98 39.32-170.163 97.755l-0.504 0.933-109.867-63.317c56.975-97.601 161.204-162.139 280.506-162.139 59.613 0 115.463 16.114 163.431 44.224l-1.526-0.827-63.445 109.867c-28.184-16.655-62.109-26.496-98.332-26.496-0.035 0-0.070 0-0.106 0h0.005z" />
<glyph unicode="&#xe90c;" d="M675.797 167.509v0l-63.445 109.867c-28.136-16.577-61.986-26.369-98.124-26.369-0.198 0-0.397 0-0.595 0.001h0.031v-126.763c0.16 0 0.349 0 0.539 0 59.493 0 115.234 16.064 163.123 44.091l-1.528-0.826z" />
<glyph unicode="&#xe90d;" d="M316.459 448.043c0.054 36.368 10.018 70.398 27.334 99.548l-0.496-0.903-109.867 63.317c-27.376-46.395-43.549-102.226-43.549-161.835s16.173-115.44 44.371-163.345l-0.822 1.51 109.867 63.189c-16.8 28.211-26.761 62.193-26.837 98.495v0.022z" />
<glyph unicode="&#xe90e;" d="M513.664 645.248c0.064 0 0.139 0 0.215 0 47.632 0 91.3-16.968 125.291-45.188l-0.322 0.26c3.62-3.032 8.327-4.874 13.464-4.874 5.805 0 11.061 2.351 14.867 6.154v0l59.733 59.733c3.807 3.851 6.159 9.149 6.159 14.995 0 6.442-2.855 12.217-7.37 16.129l-0.027 0.023c-56.453 49.345-130.831 79.438-212.238 79.438-119.185 0-223.304-64.504-279.351-160.506l-0.827-1.534 109.867-63.317c34.666 59.332 98.007 98.585 170.524 98.688h0.015z" />
<glyph unicode="&#xe90f;" d="M638.848 600.277c3.62-3.032 8.327-4.874 13.464-4.874 5.805 0 11.061 2.351 14.867 6.154v0l59.733 59.733c3.807 3.851 6.159 9.149 6.159 14.995 0 6.442-2.855 12.217-7.37 16.129l-0.027 0.023c-56.372 49.364-130.665 79.499-211.995 79.573h-0.016v-126.763c0.049 0 0.106 0 0.163 0 47.655 0 91.344-16.984 125.342-45.23l-0.321 0.26z" />
<glyph unicode="&#xe910;" glyph-name="security" d="M933.163 360.832c-15.183-0.144-27.435-12.486-27.435-27.689 0-0.075 0-0.151 0.001-0.226v0.012-195.115h-768v334.464h301.739c14.733 0.841 26.361 12.993 26.361 27.861s-11.629 27.021-26.287 27.858l-0.074 0.003h-301.696v111.659h301.696c14.733 0.841 26.361 12.993 26.361 27.861s-11.629 27.021-26.287 27.858l-0.074 0.003h-301.696c-30.376-0.337-54.87-25.040-54.87-55.463 0-0.091 0-0.182 0.001-0.273v0.014-501.76c0-0.077-0.001-0.168-0.001-0.259 0-30.424 24.494-55.126 54.838-55.463h768.032c30.376 0.337 54.87 25.040 54.87 55.463 0 0.091 0 0.182-0.001 0.273v-0.014 195.115c0 0.001 0 0.001 0 0.002 0 7.7-3.095 14.677-8.11 19.755l0.003-0.003c-4.935 4.98-11.777 8.064-19.339 8.064-0.011 0-0.022 0-0.033 0h0.002zM315.179 354.005h-103.253c-14.256 0-25.813-11.557-25.813-25.813s11.557-25.813 25.813-25.813h103.253c14.256 0 25.813 11.557 25.813 25.813s-11.557 25.813-25.813 25.813v0zM944.981 770.645l-180.651 77.44c-3.011 1.297-6.516 2.052-10.197 2.052s-7.186-0.754-10.369-2.117l0.172 0.065-180.651-77.44c-9.24-4.079-15.573-13.161-15.573-23.723v0-103.211c0-142.080 52.48-224.981 193.621-306.261 3.681-2.121 8.094-3.371 12.8-3.371s9.119 1.251 12.926 3.438l-0.126-0.067c141.099 81.067 193.621 164.053 193.621 306.261v103.168c0 0.010 0 0.022 0 0.033 0 10.587-6.373 19.685-15.492 23.667l-0.166 0.065zM909.013 643.669c0-119.168-39.424-184.704-154.837-253.909-115.2 69.333-154.837 134.955-154.837 253.909v86.187l154.837 66.389 154.837-66.389zM847.744 676.608c-4.386 3.496-10.009 5.609-16.126 5.609-8.127 0-15.382-3.731-20.147-9.573l-0.037-0.047-81.067-101.461-31.957 48c-4.689 6.969-12.547 11.492-21.461 11.492-14.241 0-25.785-11.545-25.785-25.785 0-5.327 1.615-10.276 4.382-14.385l-0.058 0.092 51.627-77.44c4.511-6.671 11.894-11.104 20.334-11.518l0.060-0.002h1.109c0.008 0 0.017 0 0.027 0 8.131 0 15.385 3.76 20.116 9.636l0.039 0.050 103.125 128.981c3.477 4.359 5.579 9.948 5.579 16.028 0 8.203-3.826 15.513-9.792 20.241l-0.054 0.041z" />
<glyph unicode="&#xe911;" d="M896 448c0-212.077-171.923-384-384-384s-384 171.923-384 384c0 212.077 171.923 384 384 384s384-171.923 384-384z" />
<glyph unicode="&#xe912;" d="M697.387 525.568l-232.875-222.165c-8.152-7.634-19.145-12.323-31.232-12.323s-23.080 4.689-31.257 12.347l0.025-0.024-120.363 114.688c-7.905 7.456-12.827 18.001-12.827 29.696s4.922 22.24 12.806 29.677l0.020 0.019c8.152 7.634 19.145 12.323 31.232 12.323s23.080-4.689 31.257-12.347l-0.025 0.024 88.96-84.864 201.643 192.341c8.152 7.634 19.145 12.323 31.232 12.323s23.080-4.689 31.257-12.347l-0.025 0.024c8.013-7.469 13.009-18.084 13.009-29.867s-4.996-22.398-12.985-29.844l-0.024-0.022z" />
<glyph unicode="&#xe913;" glyph-name="heart-filled" d="M863.445 756.821c-38.332 46.023-95.634 75.119-159.734 75.179h-0.010c-48.166-0.002-92.18-17.779-125.839-47.128l0.229 0.195c-19.423-16.499-36.183-35.279-50.115-56.111l-0.615-0.977c-14.522 21.809-31.254 40.589-50.265 56.772l-0.38 0.316c-33.389 29.118-77.335 46.887-125.43 46.933h-0.010c-64.142-0.032-121.48-29.134-159.558-74.844l-0.271-0.335c-39.488-48.245-63.419-110.557-63.419-178.458 0-2.031 0.021-4.057 0.064-6.079l-0.005 0.302c1.576-80.522 31.252-153.822 79.59-210.788l-0.401 0.484c61.533-73.181 126.346-138.954 195.968-199.327l2.176-1.846c27.477-25.216 58.624-54.016 90.965-84.565 7.968-7.751 18.86-12.531 30.869-12.531s22.902 4.78 30.879 12.541l-0.010-0.010c32.384 30.549 63.488 59.264 91.008 84.608 71.857 62.21 136.711 127.97 196.101 198.484l2.171 2.647c48.001 56.463 77.737 129.761 79.355 209.96l0.005 0.344c0.038 1.724 0.059 3.755 0.059 5.792 0 67.896-23.931 130.203-63.818 178.946l0.399-0.503z" />
<glyph unicode="&#xe914;" glyph-name="question" d="M896 312.277c-0.19 113.424-76.225 209.036-180.089 238.843l-1.756 0.431c-6.902 156.496-135.451 280.757-293.023 280.757-161.98 0-293.291-131.311-293.291-293.291 0-55.057 15.171-106.571 41.56-150.59l-0.74 1.332-39.595-143.147 143.147 39.424c39.114-23.465 85.897-38.171 135.935-40.3l0.598-0.020c30.085-105.726 125.798-181.851 239.291-181.851 46.593 0 90.189 12.83 127.449 35.15l-1.129-0.627 120.96-33.451-33.451 121.131c21.688 36.047 34.517 79.558 34.517 126.065 0 0.095 0 0.19 0 0.286v-0.015zM279.211 334.805l-85.675-23.68 23.68 85.845-5.205 8.533c-24.412 37.764-38.923 83.913-38.923 133.45 0 137.096 111.138 248.235 248.235 248.235s248.235-111.138 248.235-248.235c0-137.096-111.138-248.235-248.235-248.235-49.538 0-95.686 14.511-134.427 39.513l0.977-0.59zM830.293 129.579l-63.573 17.621-8.533-5.504c-31.148-20.377-69.298-32.5-110.279-32.5-89.016 0-164.672 57.196-192.224 136.842l-0.43 1.429c135.041 16.453 240.963 122.462 257.141 256.128l0.139 1.408c81.181-27.922 138.475-103.632 138.475-192.723 0-41.113-12.201-79.376-33.179-111.367l0.476 0.773-5.504-8.533zM394.283 432.384h57.131v-57.131h-57.131zM485.973 598.059c0-0.077 0.001-0.167 0.001-0.258 0-16.61-7.158-31.547-18.556-41.898l-0.047-0.042-67.115-61.44v-69.717h57.131v44.459l48.555 44.459c22.9 20.975 37.205 51.010 37.205 84.387 0 63.128-51.176 114.304-114.304 114.304s-114.304-51.176-114.304-114.304c0-0.012 0-0.025 0-0.037v0.002h57.131c-0.014 0.465-0.021 1.013-0.021 1.562 0 31.576 25.597 57.173 57.173 57.173s57.173-25.597 57.173-57.173c0-0.549-0.008-1.096-0.023-1.642l0.002 0.080z" />
<glyph unicode="&#xe915;" glyph-name="minus" d="M843.563 533.333h-663.211c-29.122-0.936-52.375-24.769-52.375-54.032 0-0.549 0.008-1.097 0.024-1.642l-0.002 0.080v-37.077c-0.012-0.427-0.019-0.93-0.019-1.434 0-29.262 23.25-53.094 52.285-54.030l0.086-0.002h663.253c29.14 0.915 52.414 24.756 52.414 54.034 0 0.504-0.007 1.006-0.021 1.507l0.002-0.074v37.077c0.012 0.427 0.019 0.93 0.019 1.434 0 29.262-23.25 53.094-52.285 54.030l-0.086 0.002z" />
<glyph unicode="&#xe916;" glyph-name="mouse" d="M527.872 832c-150.387-1.421-271.75-123.663-271.75-274.25 0-0.634 0.002-1.268 0.006-1.901l-0.001 0.097v-219.819c-0.017-1.131-0.027-2.467-0.027-3.805 0-150.080 121.664-271.744 271.744-271.744s271.744 121.664 271.744 271.744c0 1.038-0.006 2.074-0.017 3.109l0.001-0.158v220.672c0.004 0.536 0.006 1.17 0.006 1.804 0 150.572-121.339 272.804-271.57 274.248l-0.137 0.001zM748.544 335.317c-0.243-121.69-98.948-220.246-220.672-220.246-121.874 0-220.672 98.798-220.672 220.672 0 0.15 0 0.3 0 0.45v-0.023 219.776c0 121.874 98.798 220.672 220.672 220.672s220.672-98.798 220.672-220.672v0zM527.744 661.077c-26.156 0-47.36-21.204-47.36-47.36v0-165.76c0-26.156 21.204-47.36 47.36-47.36s47.36 21.204 47.36 47.36v0 165.76c0 26.156-21.204 47.36-47.36 47.36v0z" />
<glyph unicode="&#xe917;" glyph-name="shop" d="M708.565 395.008h-105.216c-28.833-0.024-52.2-23.391-52.224-52.222v-80.685c0.024-28.833 23.391-52.2 52.222-52.224h105.218c28.833 0.024 52.2 23.391 52.224 52.222v80.685c-0.024 28.833-23.391 52.2-52.222 52.224h-0.002zM722.816 262.101c-0.024-7.861-6.39-14.226-14.248-14.251h-105.218c-7.861 0.024-14.226 6.39-14.251 14.248v80.685c0.024 7.861 6.39 14.226 14.248 14.251h105.218c7.861-0.024 14.226-6.39 14.251-14.248v-0.002zM964.821 580.437c0.002 0.093 0.002 0.203 0.002 0.313 0 3.809-1.064 7.369-2.911 10.399l0.050-0.088-130.816 229.973c-3.774 6.552-10.716 10.906-18.68 10.965h-574.941c-0.013 0-0.028 0-0.044 0-7.975 0-14.929-4.376-18.589-10.859l-0.055-0.106-130.859-230.101c-1.665-3.007-2.646-6.594-2.646-10.41 0-0.030 0-0.061 0-0.091v0.005c0.094-51.221 30.737-95.261 74.677-114.881l0.8-0.319v-379.349c0-0.038 0-0.084 0-0.13 0-11.834 9.521-21.443 21.32-21.588h685.497c11.89 0.024 21.522 9.657 21.547 21.544v376.621c0.045 0.352 0.071 0.76 0.071 1.173s-0.026 0.821-0.076 1.221l0.005-0.048c44.892 20.069 75.615 64.32 75.648 115.75v0.004zM250.069 788.693h549.76l102.4-179.925h-754.176zM711.211 565.803c-7.194-39.065-40.986-68.27-81.6-68.27s-74.406 29.205-81.522 67.76l-0.078 0.51zM502.144 565.803c-7.247-39.051-41.048-68.229-81.664-68.229s-74.417 29.178-81.585 67.717l-0.079 0.513zM129.792 565.803h163.456c-7.247-39.051-41.048-68.229-81.664-68.229s-74.417 29.178-81.585 67.717l-0.079 0.513zM447.573 107.179h-123.733v233.003c0 16.966 13.754 30.72 30.72 30.72v0h62.72c16.966 0 30.72-13.754 30.72-30.72v0-232.576zM845.952 107.179h-355.285v233.003c-0.194 40.669-33.17 73.57-73.849 73.643h-62.684c-40.667-0.096-73.62-32.989-73.813-73.624v-232.936h-76.373v347.136h7.552c0.051 0 0.111 0 0.171 0 43.267 0 81.439 21.809 104.126 55.033l0.28 0.434c22.952-33.767 61.186-55.657 104.533-55.657s81.581 21.89 104.252 55.218l0.281 0.438c22.882-33.807 61.093-55.735 104.427-55.735s81.545 21.928 104.144 55.293l0.282 0.442c22.947-33.805 61.203-55.723 104.578-55.723 0.014 0 0.029 0 0.043 0h7.379v-347.179zM838.571 497.323c-0.004 0-0.010 0-0.015 0-40.604 0-74.387 29.207-81.486 67.757l-0.078 0.509h163.328c-7.361-39.010-41.114-68.141-81.693-68.267h-0.014z" />
<glyph unicode="&#xe918;" glyph-name="plus" d="M843.477 517.888h-261.76v261.717c0 28.937-23.458 52.395-52.395 52.395h-34.859c-28.937 0-52.395-23.458-52.395-52.395v0-261.717h-261.675c-28.937 0-52.395-23.458-52.395-52.395v0-34.901c0-28.937 23.458-52.395 52.395-52.395v0h261.717v-261.76c0-0.013 0-0.028 0-0.043 0-28.937 23.458-52.395 52.395-52.395h34.901c28.937 0 52.395 23.458 52.395 52.395v0 261.888h261.76c0.013 0 0.028 0 0.043 0 28.937 0 52.395 23.458 52.395 52.395v0 34.859c-0.024 28.918-23.473 52.352-52.395 52.352-0.045 0-0.090 0-0.135 0h0.007z" />
<glyph unicode="&#xe919;" glyph-name="search" d="M856.704 134.144l-182.357 189.653c45.031 53.373 72.399 122.925 72.399 198.869 0 170.84-138.493 309.333-309.333 309.333s-309.333-138.493-309.333-309.333c0-170.84 138.493-309.333 309.333-309.333 0.032 0 0.065 0 0.097 0h-0.005c0.241-0.001 0.526-0.001 0.81-0.001 66.114 0 127.331 20.967 177.364 56.614l-0.937-0.634 183.467-191.104c7.45-8.722 18.457-14.215 30.748-14.215 22.292 0 40.363 18.071 40.363 40.363 0 11.781-5.047 22.383-13.097 29.762l-0.030 0.027zM437.589 751.275c126.257 0 228.608-102.351 228.608-228.608s-102.351-228.608-228.608-228.608c-126.257 0-228.608 102.351-228.608 228.608v0c0 126.257 102.351 228.608 228.608 228.608v0z" />
<glyph unicode="&#xe91a;" glyph-name="cart" d="M746.667 291.243c-58.727-0.024-106.325-47.638-106.325-106.368 0-58.745 47.623-106.368 106.368-106.368 58.73 0 106.344 47.598 106.368 106.323v0.002c0 0.013 0 0.028 0 0.043 0 58.745-47.623 106.368-106.368 106.368-0.015 0-0.030 0-0.045 0h0.002zM746.667 142.251c-23.564 0-42.667 19.103-42.667 42.667s19.103 42.667 42.667 42.667c23.564 0 42.667-19.103 42.667-42.667v0c0-23.564-19.103-42.667-42.667-42.667v0zM917.675 689.323c-5.75 7.447-14.667 12.207-24.698 12.245h-613.894l-28.245 120.235c-3.252 14.134-15.668 24.536-30.535 24.661h-103.523c-17.673 0-32-14.327-32-32s14.327-32 32-32v0h78.763l101.973-434.091c3.315-14.048 15.688-24.364 30.493-24.491h488.59c14.733 0.118 27.053 10.309 30.419 24.018l0.045 0.217 76.373 313.899c0.581 2.296 0.914 4.931 0.914 7.644 0 7.446-2.51 14.307-6.73 19.781l0.056-0.076zM792.021 387.797h-439.211l-58.752 249.941h558.933zM370.645 291.243c-58.727-0.024-106.325-47.638-106.325-106.368 0-58.745 47.623-106.368 106.368-106.368 58.73 0 106.344 47.598 106.368 106.323v0.002c0 0.013 0 0.028 0 0.043 0 58.745-47.623 106.368-106.368 106.368-0.015 0-0.030 0-0.045 0h0.002zM370.645 142.251c-23.564 0-42.667 19.103-42.667 42.667s19.103 42.667 42.667 42.667c23.564 0 42.667-19.103 42.667-42.667v0c0-23.564-19.103-42.667-42.667-42.667v0z" />
<glyph unicode="&#xe91b;" glyph-name="share" d="M850.475 685.269c0-57.85-46.897-104.747-104.747-104.747s-104.747 46.897-104.747 104.747c0 57.85 46.897 104.747 104.747 104.747v0c57.84-0.024 104.722-46.906 104.747-104.744v-0.002zM745.771 556.288c-71.211 0-128.939 57.728-128.939 128.939s57.728 128.939 128.939 128.939c71.211 0 128.939-57.728 128.939-128.939v0c0-71.211-57.728-128.939-128.939-128.939v0zM745.771 765.781c-44.489 0-80.555-36.066-80.555-80.555s36.066-80.555 80.555-80.555c44.489 0 80.555 36.066 80.555 80.555v0c0 44.489-36.066 80.555-80.555 80.555v0zM850.475 175.104c0-57.85-46.897-104.747-104.747-104.747s-104.747 46.897-104.747 104.747c0 57.85 46.897 104.747 104.747 104.747v0c57.85 0 104.747-46.897 104.747-104.747v0zM745.771 46.165c-71.211 0-128.939 57.728-128.939 128.939s57.728 128.939 128.939 128.939c71.211 0 128.939-57.728 128.939-128.939v0c0-71.211-57.728-128.939-128.939-128.939v0zM745.771 255.659c-44.489 0-80.555-36.066-80.555-80.555s36.066-80.555 80.555-80.555c44.474 0 80.53 36.041 80.555 80.51v0.002c0 0.013 0 0.028 0 0.043 0 44.489-36.066 80.555-80.555 80.555 0 0 0 0 0 0v0zM404.352 430.165c0-57.85-46.897-104.747-104.747-104.747s-104.747 46.897-104.747 104.747c0 57.85 46.897 104.747 104.747 104.747v0c57.85 0 104.747-46.897 104.747-104.747v0zM299.605 301.227c-71.211 0-128.939 57.728-128.939 128.939s57.728 128.939 128.939 128.939c71.211 0 128.939-57.728 128.939-128.939v0c0-71.211-57.728-128.939-128.939-128.939v0zM299.605 510.72c-44.471-0.024-80.512-36.081-80.512-80.555 0-44.489 36.066-80.555 80.555-80.555s80.555 36.065 80.555 80.555v0c0 0.013 0 0.028 0 0.043 0 44.489-36.066 80.555-80.555 80.555-0.015 0-0.030 0-0.045 0h0.002zM375.211 444.288c-14.745 0.035-27.131 10.090-30.713 23.714l-0.050 0.222c-0.682 2.484-1.075 5.335-1.075 8.279 0 11.873 6.381 22.256 15.901 27.905l0.15 0.082 294.869 170.667c4.522 2.656 9.961 4.224 15.765 4.224 11.808 0 22.099-6.49 27.502-16.098l0.082-0.158c2.641-4.594 4.2-10.1 4.2-15.971 0-11.884-6.385-22.277-15.911-27.936l-0.15-0.082-294.869-170.667c-4.485-2.665-9.885-4.248-15.653-4.267h-0.005zM670.080 181.12c-5.788 0.011-11.204 1.594-15.846 4.346l0.145-0.079-294.997 170.667c-9.676 5.741-16.061 16.134-16.061 28.018 0 5.871 1.558 11.378 4.283 16.13l-0.084-0.158c5.485 9.766 15.776 16.256 27.584 16.256 5.805 0 11.243-1.569 15.914-4.305l-0.149 0.081 294.869-170.667c9.67-5.732 16.051-16.115 16.051-27.988 0-2.943-0.392-5.795-1.127-8.506l0.052 0.227c-3.631-13.846-16.018-23.901-30.759-23.936h-0.004z" />
<glyph unicode="&#xe91c;" glyph-name="star" d="M927.147 541.739c-5.341 15.982-19.453 27.601-36.479 29.214l-0.171 0.013-231.253 20.949-91.392 214.357c-6.72 15.274-21.721 25.746-39.168 25.746s-32.448-10.472-39.061-25.473l-0.107-0.273-91.477-214.144-231.424-21.035c-21.76-2.132-38.625-20.334-38.625-42.475 0-12.756 5.598-24.205 14.471-32.023l0.047-0.040 174.933-153.344-51.755-227.157c-0.658-2.808-1.036-6.032-1.036-9.343 0-23.564 19.103-42.667 42.667-42.667 8.033 0 15.548 2.22 21.964 6.080l-0.193-0.107 199.467 119.253 199.467-119.253c6.224-3.753 13.738-5.973 21.772-5.973 23.564 0 42.667 19.103 42.667 42.667 0 3.312-0.377 6.536-1.091 9.631l0.056-0.287-51.627 227.115 174.933 153.344c8.832 7.853 14.369 19.246 14.369 31.933 0 4.753-0.777 9.325-2.212 13.595l0.088-0.301z" />
<glyph unicode="&#xe91d;" glyph-name="trash" d="M777.557 736h-132.267v24.021c-0.073 39.723-32.255 71.906-71.972 71.979h-96.007c-39.723-0.073-71.906-32.255-71.979-71.972v-24.028h-132.011c-33.112-0.048-59.941-26.878-59.989-59.985v-84.016c0-13.267 10.755-24.021 24.021-24.021v0h13.099l20.736-435.2c1.714-38.343 33.216-68.779 71.826-68.779 0.039 0 0.077 0 0.116 0h364.453c0.022 0 0.049 0 0.075 0 38.55 0 70.013 30.342 71.812 68.446l0.006 0.162 20.736 435.2h13.099c13.267 0 24.021 10.755 24.021 24.021v0 84.181c-0.048 33.022-26.732 59.796-59.715 59.989h-0.018zM453.547 760.021c0 13.267 10.755 24.021 24.021 24.021v0h96c13.267 0 24.021-10.755 24.021-24.021v-24.021h-144.213zM261.547 676.011c0.024 6.612 5.378 11.965 11.987 11.989h504.023c6.612-0.024 11.965-5.378 11.989-11.987v-59.991h-528.171zM731.733 134.912c-0.586-12.752-11.068-22.869-23.912-22.869-0.008 0-0.017 0-0.025 0h-364.671c-0.007 0-0.015 0-0.024 0-12.844 0-23.326 10.117-23.91 22.817l-0.002 0.053-20.523 433.152h453.504zM525.355 129.323c9.025 0 16.341 7.316 16.341 16.341v212.352c0 9.025-7.316 16.341-16.341 16.341s-16.341-7.316-16.341-16.341v-212.352c0-9.025 7.316-16.341 16.341-16.341v0zM648.533 129.323c9.025 0 16.341 7.316 16.341 16.341v0 212.352c0 9.025-7.316 16.341-16.341 16.341s-16.341-7.316-16.341-16.341v0-212.352c0-9.025 7.316-16.341 16.341-16.341v0zM402.176 129.323c9.025 0 16.341 7.316 16.341 16.341v212.352c0 9.025-7.316 16.341-16.341 16.341s-16.341-7.316-16.341-16.341v-212.352c0-9.025 7.316-16.341 16.341-16.341v0z" />
<glyph unicode="&#xe91e;" glyph-name="check" d="M422.101 177.28c-7.096-7.1-16.902-11.492-27.733-11.492s-20.637 4.392-27.733 11.492v0l-221.568 221.44c-10.642 10.64-17.225 25.341-17.225 41.579s6.583 30.938 17.225 41.579l27.733 27.733c10.644 10.668 25.362 17.268 41.621 17.268 16.238 0 30.938-6.583 41.579-17.225l138.24-138.24 373.76 373.504c10.64 10.642 25.341 17.225 41.579 17.225s30.938-6.583 41.579-17.225l27.733-27.733c10.642-10.64 17.225-25.341 17.225-41.579s-6.583-30.938-17.225-41.579v0z" />
<glyph unicode="&#xe91f;" glyph-name="menu" d="M864 411.221h-704c-18.38 3.809-31.997 19.866-31.997 39.104s13.617 35.295 31.738 39.059l0.259 0.045h704c18.38-3.809 31.997-19.866 31.997-39.104s-13.617-35.295-31.738-39.059l-0.259-0.045zM864 649.429h-704c-18.161 2.059-32.142 17.336-32.142 35.879 0 1.128 0.052 2.244 0.153 3.345l-0.010-0.141c-0.093 0.973-0.146 2.103-0.146 3.246 0 18.544 13.983 33.822 31.981 35.864l0.165 0.015h704c18.163-2.058 32.146-17.335 32.146-35.879 0-1.143-0.053-2.273-0.157-3.389l0.011 0.143c0.091-0.96 0.142-2.076 0.142-3.204 0-18.542-13.981-33.819-31.977-35.864l-0.165-0.015zM864 172.971h-704c-18.38 3.809-31.997 19.866-31.997 39.104s13.617 35.295 31.738 39.059l0.259 0.045h704c18.38-3.809 31.997-19.866 31.997-39.104s-13.617-35.295-31.738-39.059l-0.259-0.045z" />
<glyph unicode="&#xe920;" glyph-name="arrow-nright" d="M899.968 476.16l-228.48 228.48c-6.464 6.464-15.395 10.462-25.259 10.462-19.728 0-35.721-15.993-35.721-35.721 0-9.864 3.998-18.794 10.462-25.259l167.595-167.595h-610.432c-19.723 0-35.712-15.989-35.712-35.712s15.989-35.712 35.712-35.712h610.347l-167.595-167.595c-6.448-6.464-10.435-15.385-10.435-25.237 0-19.737 16-35.736 35.736-35.736 9.884 0 18.831 4.013 25.301 10.498l228.524 228.524c6.479 6.465 10.488 15.405 10.488 25.28 0 9.897-4.026 18.853-10.529 25.321l-0.002 0.002z" />
<glyph unicode="&#xe921;" glyph-name="filter" d="M526.677 832c-172.587 0-356.011-47.701-356.011-135.979 1.933-26.902 16.656-49.994 38.060-63.417l0.34-0.199c0.538-1.206 1.151-2.243 1.866-3.201l-0.031 0.044 251.733-278.357v-270.891c0.012-6.624 4.048-12.303 9.793-14.723l0.105-0.039c1.803-0.769 3.9-1.216 6.101-1.216 4.4 0 8.383 1.786 11.264 4.672v0l96 96c2.885 2.9 4.674 6.893 4.693 11.303v174.937l251.733 278.357c0.686 0.879 1.298 1.874 1.794 2.934l0.040 0.096c21.761 13.642 36.488 36.768 38.385 63.441l0.015 0.261c0.085 88.277-183.339 135.979-355.883 135.979zM562.773 367.787c-2.614-2.801-4.23-6.563-4.267-10.702v-174.471l-64-64v238.464c-0.045 4.145-1.66 7.904-4.276 10.719l0.009-0.010-204.8 226.645c69.234-21.883 148.856-34.492 231.422-34.492 3.436 0 6.867 0.022 10.293 0.065l-0.521-0.005c2.898-0.038 6.319-0.060 9.746-0.060 82.543 0 162.146 12.593 236.99 35.963l-5.626-1.514zM526.677 592c-190.933 0-324.011 54.827-324.011 103.979s133.035 104.021 324.011 104.021 323.797-54.827 323.797-103.979-132.864-104.021-323.797-104.021z" />
</font>
</defs>
</svg>
